<?xml version="1.0" encoding="UTF-8"?>
<!-- Created with Inkscape (http://www.inkscape.org/) -->
<svg width="6.0281mm" height="8.7886mm" version="1.1" viewBox="0 0 6.0281 8.7886" xmlns="http://www.w3.org/2000/svg" xmlns:cc="http://creativecommons.org/ns#" xmlns:dc="http://purl.org/dc/elements/1.1/" xmlns:rdf="http://www.w3.org/1999/02/22-rdf-syntax-ns#" xmlns:xlink="http://www.w3.org/1999/xlink">
 <defs>
  <linearGradient id="linearGradient4921" x1="79.696" x2="116.68" y1="134.67" y2="134.67" gradientUnits="userSpaceOnUse">
   <stop stop-color="#06f" offset="0"/>
   <stop stop-color="#06f" stop-opacity="0" offset="1"/>
  </linearGradient>
  <linearGradient id="linearGradient4937" x1="79.561" x2="116.82" y1="134.67" y2="134.67" gradientUnits="userSpaceOnUse">
   <stop stop-color="#003380" offset="0"/>
   <stop stop-color="#003380" stop-opacity="0" offset="1"/>
  </linearGradient>
 </defs>
 <metadata>
  <rdf:RDF>
   <cc:Work rdf:about="">
    <dc:format>image/svg+xml</dc:format>
    <dc:type rdf:resource="http://purl.org/dc/dcmitype/StillImage"/>
    <dc:title/>
   </cc:Work>
  </rdf:RDF>
 </metadata>
 <g transform="translate(-59.194 -53.696)">
  <g transform="matrix(.11456 0 0 .11456 51.823 44.308)">
   <circle cx="90.655" cy="108.26" r="23.19" fill="none" stroke="#06f" stroke-width="6.2414"/>
   <path d="m64.592 110.17c0.12573 18.899 16.005 22.546 25.942 48.162 10.052-25.306 25.656-29.676 26.148-47.336-9.5248 11.951-16.842 17.321-25.838 20.671-16.199-6.9492-15.381-11.362-26.252-21.497z" fill="#06f"/>
   <path d="m85.202 127.65c-3.1797 2.2753-6.4321 10.102-5.2616 11.969 1.1408 1.8191 3.5598 3.3985 10.593 18.713 10.491-25.087 25.656-29.676 26.148-47.336-10.415 10.468-14.671 17.716-27.706 17.619z" fill="url(#linearGradient4937)" opacity=".289" stroke="url(#linearGradient4921)" stroke-width=".26458px"/>
   <circle cx="90.655" cy="108.26" r="19" fill="none" stroke="#fff" stroke-width="4.914"/>
  </g>
 </g>
</svg>
